/* XPM */
static char *eb1d95ef3f2b4b40f91d1f8e6ad66dfftSSNXJoVKbwFhyTc[] = {
/* columns rows colors chars-per-pixel */
"64 64 256 2 ",
"   c #AC5D32",
".  c #2C3A1A",
"X  c #355426",
"o  c #396F34",
"O  c #245E2D",
"+  c #575C1A",
"@  c #4B521A",
"#  c #59621E",
"$  c #67691C",
"%  c #79791C",
"&  c #6B721E",
"*  c #4C5C27",
"=  c #576926",
"-  c #59752B",
";  c #487837",
":  c #587A38",
">  c #4A6B31",
",  c #697828",
"<  c #767924",
"1  c #6C7330",
"2  c #437B53",
"3  c #6A7761",
"4  c #335842",
"5  c #D4362B",
"6  c #887A33",
"7  c #A2642C",
"8  c #CF5A32",
"9  c #EA592A",
"0  c #D16936",
"q  c #EA6C31",
"w  c #B25B4B",
"e  c #8B7C46",
"r  c #AE714F",
"t  c #B57D73",
"y  c #CD5948",
"u  c #D9774A",
"i  c #CA7657",
"p  c #D36C4F",
"a  c #E4794E",
"s  c #D07A69",
"d  c #E87567",
"f  c #EC5F44",
"g  c #48853A",
"h  c #598839",
"j  c #57983D",
"k  c #4D943E",
"l  c #69842C",
"z  c #668936",
"x  c #6C973A",
"c  c #788C2B",
"v  c #78A83A",
"b  c #6FAC3D",
"n  c #349150",
"m  c #01A74E",
"M  c #01A84F",
"N  c #0DAA4E",
"B  c #16AC4E",
"V  c #03A751",
"C  c #02A851",
"Z  c #0BAA55",
"A  c #14AD5A",
"S  c #17AA5A",
"D  c #29B14C",
"F  c #38B34D",
"G  c #2AB256",
"H  c #2DA951",
"J  c #29B368",
"K  c #33B46C",
"L  c #39B570",
"P  c #20A25D",
"I  c #478846",
"U  c #528C44",
"Y  c #4C9A45",
"T  c #559A46",
"R  c #499555",
"E  c #539657",
"W  c #4B8956",
"Q  c #768B48",
"!  c #699746",
"~  c #769A48",
"^  c #6B9C55",
"/  c #4CA546",
"(  c #55A849",
")  c #4AB649",
"_  c #55B44A",
"`  c #5AB64B",
"'  c #56B949",
"]  c #5BBA4C",
"[  c #55B746",
"{  c #5BA753",
"}  c #5AB954",
"|  c #47AF56",
" . c #7AAB4B",
".. c #65B94B",
"X. c #66BB55",
"o. c #76BA53",
"O. c #71AA50",
"+. c #578965",
"@. c #559264",
"#. c #6C9674",
"$. c #4FB970",
"%. c #70B266",
"&. c #74C347",
"*. c #74C470",
"=. c #52C17C",
"-. c #64C438",
";. c #87861D",
":. c #9B981E",
">. c #91901D",
",. c #B2AD1E",
"<. c #878827",
"1. c #979725",
"2. c #8C9033",
"3. c #A99231",
"4. c #95AC36",
"5. c #A9A624",
"6. c #B1AB26",
"7. c #BAB525",
"8. c #B1B332",
"9. c #A19E1F",
"0. c #D29539",
"q. c #EA913A",
"w. c #C4BD27",
"e. c #D4B431",
"r. c #C6AE1F",
"t. c #9FD229",
"y. c #D4CD1E",
"u. c #F6E91D",
"i. c #CBC523",
"p. c #D6CB26",
"a. c #DCD323",
"s. c #E6DA25",
"d. c #E8CE31",
"f. c #F5E626",
"g. c #ECE223",
"h. c #D8E70E",
"j. c #91924C",
"k. c #AC904F",
"l. c #96A658",
"z. c #89B658",
"x. c #8EAC4C",
"c. c #A7A758",
"v. c #B1B354",
"b. c #93916C",
"n. c #B3916F",
"m. c #86A466",
"M. c #91B56B",
"N. c #A6A867",
"B. c #A7BB67",
"V. c #B7B769",
"C. c #B5B273",
"Z. c #CB9A46",
"A. c #D69647",
"S. c #CC9B5A",
"D. c #D89959",
"F. c #D18A4E",
"G. c #E79759",
"H. c #E8904E",
"J. c #D9B558",
"K. c #D2AC53",
"L. c #E8BB58",
"P. c #E8AB4F",
"I. c #DA8967",
"U. c #DA9A6B",
"Y. c #DA9878",
"T. c #CB926F",
"R. c #E59A62",
"E. c #EA9371",
"W. c #DBB866",
"Q. c #D9A57C",
"!. c #D7BB79",
"~. c #CCAE6D",
"^. c #E8A868",
"/. c #E5B867",
"(. c #EAB577",
"). c #88C657",
"_. c #97CD55",
"`. c #B6C558",
"'. c #B0CB4D",
"]. c #8FC66F",
"[. c #B7C76A",
"{. c #B0CA71",
"}. c #D0CC59",
"|. c #EACF54",
" X c #F5E54B",
".X c #EEE356",
"XX c #C6C865",
"oX c #D6C678",
"OX c #CFCF6E",
"+X c #EAC668",
"@X c #EBC976",
"#X c #F2CB77",
"$X c #F0D270",
"%X c #F2E96C",
"&X c #D8E26F",
"*X c #6AAF83",
"=X c #72C88C",
"-X c #7FC9A0",
";X c #94B38D",
":X c #B0B58D",
">X c #B8B3A4",
",X c #B78F82",
"<X c #D8998B",
"1X c #E49886",
"2X c #DAA689",
"3X c #D8B785",
"4X c #DBAB94",
"5X c #DDB298",
"6X c #C7B893",
"7X c #E4A987",
"8X c #E3A996",
"9X c #E3B39A",
"0X c #E7B78B",
"qX c #DBB5A8",
"wX c #CFB9B1",
"eX c #E5B8A8",
"rX c #E4BCB4",
"tX c #EBA9A3",
"yX c #94CC8D",
"uX c #AFCD8E",
"iX c #90D1A9",
"pX c #B3D5AF",
"aX c #BBE1B4",
"sX c #C8C788",
"dX c #D8C885",
"fX c #DAC897",
"gX c #CBD094",
"hX c #E7C886",
"jX c #E6CA99",
"kX c #E7D89C",
"lX c #F3D390",
"zX c #F3F293",
"xX c #C8C6A7",
"cX c #D1CCB0",
"vX c #E7C5A5",
"bX c #EAD7A8",
"nX c #E5C5B7",
"mX c #EADBB6",
"MX c #F4D1B0",
"NX c #F5EAAB",
"BX c #BFBFC2",
"VX c #D3CCCD",
"CX c #E7DBC5",
"ZX c #EAD2CC",
"AX c #D2E8D4",
"SX c #EBE5C9",
"DX c #F4E8C7",
"FX c #EBE7D7",
"GX c #F6E9D7",
"HX c #F8F5D1",
"JX c #EAEAE6",
"KX c #F9F5EC",
"LX c #FEFFFE",
"PX c #F7F7F4",
"IX c #EEF4EE",
"UX c #DCE8E4",
/* pixels */
"                                                                                                                                ",
"                                                                                                                                ",
"                                                                                                                                ",
"                                                                      P.H.                                                      ",
"                            oXdXdXoXdXdX3X!.!.oXoX                                                                              ",
"              |.|. X X X.X.X|.}.}.XXXXXX[.XXXXXX}.OX&X.X%X%X%X%X%X                                                              ",
"            OXOX[.`._.).).o.o.....` ` ] ] ] ] ....X.&.o.o.).)._.{.[.XXXXXX`.`.v.V.`.`.      _._._._.).o.z.N.C.N.z.`             ",
"        ......] ] ' / b b 4.h Y / n R R n R W R R E R E R / R R E R E R { ( ..............] ] ] ] X.M.].M.6XFXxX;X*.] ]         ",
"      { ( [ [ ' ( j , < i.g.$ ; ! z : 2.z o 2.z o 2.- > 4.- ; 2.: o ! : ; 4.h j v v b j T b v v v ! ^ :X:X:X>XxXuX;X` _ _       ",
"    ` { ` [ ' Y l <.- o 5.f.;.X p.>.* <.s.+ w.7.. p.>.$ f.% $ f.& @ s.% + f.7.<.< <.a.% $ 5.>.1.s.>.. 1.p.< 2.4.2.> ( ( { `     ",
"    { { _ ( j , w.# ; g < g.p.@ % >.1.5.<.X 6.i.>.7.1.1.7.= = i.5.1.s.;.@ s.1.<.1.6.1.@ 7.7.% 5.f.7.. 6.u.:.9.w.;.; _ _ { (     ",
"    { { Y , 7.>.l z z h h v c 6.1.X j ( ( T ! ~ ~ ^ ^ ^ ^ ^ ^ ~ ~ Q ~ : = s.<.l x ! / k x v x c 4.l ; l 1.; g l 9.> ( ] { {     ",
"    _ _ _ ( O.! Q Q j.j.j.~ { O.m.^ z.B.B.N.l.l.l.N.V.V.l.l.z.B.{.sXsXN., g.>.3 {.C.B.M.z. .O.x.v.x. .4.4.4.x.x.4.x.` ` { {     ",
"    X.' [ ] j.w s qXqX4XI.i r n.wXcXvXvX4XS.U.Y.Q.Q.D.0.r 3.k.k.k.~.V.[.l.v.v.hXhXdXMXMXmXmXcXfXdX~.c.x.x.x. . . ...' _ ` _     ",
"      %.' ` k.y 1XwXwXeXT.w r ,XqX6X6XqX2X4X8XY.Y.R.u u i r y i Y.9X~.c.B.[.K.~.^.R.f E.lXlX0X4XnX1X4XT.2Xn.e : j.x./ [ ' X.    ",
"        *.X. .F.s s 1X1Xd i r <X4XqXqXrX4XI.u H.E.9XrXnXnX9X2XY.Y.1X7XF.2.g o o l.W.R.(.S.G./.^.3XI.3XS.~.k.e 1 j.j.Y ] *.      ",
"          =XC.hXDXKXSXjX@XK.v.~.:X3XU.s y i 2XrXVXnXeX8XU.U.U.I.I.I.R.G.D.e - : c.V.K.W.sXuXyX].M.C.gXV.sXxXcXcX3XS.N.iX        ",
"          Z L yXAXPXFXhX/.@X@XW.W.J.A.u 7X9XjX3XQ.2X9X9X5X5X5X4X4X4X5XQ.7XR.0 7 k.K.W.C.pX*.t.-.t.&.yXuXoXmXJXIXSXxX;X          ",
"          C M C K -XJXCXjX@X+XW.W.J.A.^.hX+XH.H.H.G.G.a I.U.W.W././.#XL.@X/.Z.k.k.V.r w b.m.).).).*.yX{.kXFXJXAXiX$.=X          ",
"          H ^ H m A   PXIXSXjXV.k.Z./.@X+XP.q 9 9 q q 8 0 D.W.+X#X+Xq.A.P.+XJ.J.W.W.A.^.^.D.J.oXdXoXkXDXKXLXPX=Xm $.JX          ",
"          p a r n J UXLXLXLXLXKXFXmXbXhXW.D.F.R.G.P.P.Z.P./.K.L.L.F.0 D.F.Z.Z.Z.+XW.Z.J./.hXhXkXDXKXLXLXLXLXIXL M $.wX          ",
"            d f k.K AXLXLXLXLXLXLXLXLX  SXmXmXmXbXkX3X!.3X3X!.!.!.!.hX3X3X3XhXjXkXkXbXmXGXKXLXLXLXLXLXLXLXLXAXA M %.            ",
"            a a E.n.pXLX  LXLXLXLX              uXuX].].].M.b.b.m.M.{.{.uXuXcXSXKXKXKXPXLXLXLXLXLXLXLXLXLXLXiXV N O.            ",
"            j.8 8 r     LXLXLXLXLXLX                aXyXo.` U 2 ( ] ..z.aXUXPXLXLXLXLXLXLXLXLXLXLXLXLXLXLXAXG m G ].            ",
"            H k.F.R K LXLXLXLXLXLXLXLXLXLXLXLXLXLXLXLXvX0.~.uXyXpXAXSX(.MXLXLXLXLXLXLXLXLXLXLXLXLXLXLXLXFX%.N M $.xX            ",
"            C N P m *XLXLXLXLXLXLXLXLXLXLXLXLXLXLXLXPXY.0X8XrXeXeXZXrXZX7XPXLXLXLXLXLXLXLXLXLXLXLXLXLXFX].) M C M.n.            ",
"              C M m L IXLXLXLXLXLXLXLXLXLXLXLXLXLXLXLX9XMXnXeXtX8X9XY.^.7XLXLXLXLXLXLXLXLXLXLXLXLXLXFX].[ F M A pX              ",
"              C C m J UXVXBXBXVXVXBXVXVXVXJXJXIXPXLXLXGX#XmXPXKXHXlXP.P.GXLXLXLXLXLXLXLXLXLXLXLXLXDX].` ] G M K AX              ",
"              C C M A pXxX6X6XfXfXdXdXsXgXxX>X>XwXcXVXUXCXmXGXKXDXlXlXGXLXLXLXLXLXLXLXLXLXLXLXPXNX_.] ' ' B m $.AX              ",
"              V M C M j.0.0.e.d.d.f.f.f.d.d.e.J.J.K.oX3X6XxXcXPXLXLXLXLXLXLXLXLXLXLXLXLXLXLXHX&Xv.X.] ' ) N m =.aX              ",
"              V M C m x 3.0.e.p.d.f.f.f.d.d.d.e.e.e.e.e.d.d. X%XzXHXPXLXLXLXLXLXLXLXLXPXHX%X'.c.C.M.' ] ) M C iXVX              ",
"              V C M C T S.!.hXkXNXNXNXNXNXNXNXbXbXkX+X  d.|. Xf.u.u. X%XNXDXGXGXDXmXlX|.'.b z.cXxX..] ] F C A C.                ",
"                C C m $.fXfXdXOXOX}.}.'.'.'.`.v.B.`.'.'.'.&XzXzXzX%X%X X|.|.|.}.J.}.'.v [ '  .cXxXyXX.] D M J ~.                ",
"                C C C H x. . .....[ ' ] ] X.X.] ] ' ] ......&.&.)._.{.gXgXOX{._.).o.] _ %.yX:XcXFXcXX.[ B M $.;X                ",
"                C C C N ) ] ] ' ' ( k T ( _ Y / / ) ) ) _ _ / / _ ( ( Y U W Y ] _ ] ] ] %.cXCXCXxX#._ ) N M Z S                 ",
"                M C M M ) ] _ [ ' g 5.w.l E W +.+.@.@.@.W W +.@.E #.#.#.+.#.{ [ ' ] ] ' } :Xb.b.j.- ( ) M M M                   ",
"                C M M M F ] ] ' ( 1 7.g.= R W #.#.+.#.*X;X*X;X#.@.+.#.#.+.@./ ' ' _ T h k Q < = 5.h _ F M M N                   ",
"                S A C m D ' ' ] U <.# a., Y ; ; g I I I E I I / { ( / ( g Y Y k Y x 8.p.# 1.6.1.< T ' D M D )                   ",
"                  L Z m D ' ] / 1 < * a.< 1 5.6.<.= , - - - l ; z U h - >.= 8.5.= 7.% w.# :.f.g.5.; [ D C G J                   ",
"                  J J C B ' ] g 1.- : p.% 1.1.# 7.6 9.% :.% 9.< 6.+ 9.& i.6.9.i.$ < 6.s.& 9.,.% p.- _ B A K L                   ",
"                  J K A B ' U > 5.: T i.:.1.c o 7.>.5.% 9.% ,.;.5.$ 5.$ g.5.X 7.< w.;.a.:.9.1.X , T } N A L                     ",
"                  C A S N ) , 9.7., o ,.7.% 7., i.;.5.$ 1.% 5.;.:.& 5.+ a.+ <.6.1.7.>.s.= & l T x ..) M S L                     ",
"                  V M M C F c s.<.1 = 1.a.@ :.a.5.$ w.1.a.p.9.;.i.7.7.+ 7.1.i.- , 7.1.c g g x 8.8. .F C J L                     ",
"                    C M C F j c > U : c 5.9.@ - > = i.7.<.<., # 7.5.5.+ 7.5., Y k h U x  .4.8.8.x...D Z J K                     ",
"                    C M C F _ Y / ' _ / ; i.< Y ` Y : : T E U T I ; > = 6.> / ' ] X.x.8.4.8.4...` ] D C J                       ",
"                    V C C G ] ' } =.*.} Y >.= E %.%.#.%.%.m.m.m.m.m.O., i.-  .x.x.x.x.8.k.~ ( _ ' ' B Z J                       ",
"                    V m M B ' ) =XyX$.=X*.Q e c.N.l.M.C.!.V.V.V.dXjXfX6 y.e jXjXjXjXfX!.k.2.4.h j [ N A K                       ",
"                    V M C B ) ) yX).D G uXuXjXMXsXc.j.l.B.z.z.z.{.gXgX6 i.j.xXDXDXGXFX:XV.v.XXK.1 ~ N J K                       ",
"                    Z C V N ' l.uX).t.t._.pXVXcXT.F.G.G.A.3.x.l.c.B.{.l.j.~.+X^.hXNX:XV.Q X o S.j.j.N J L                       ",
"                      C V M  ./.gXyXt.h.] -XM.T.i 8XeXeXG.8 8 8 8 S.B.{.XX$XH.5 R.hX3.D.n.r * c.N.m.C S                         ",
"                      C C M N.lXFXiX$.} $.*X6X9X8XeXqXE.8 8 7 8 i Q.c.`.XXK.(.E.(.a I.8XtXr 6 c.xX%.M V                         ",
"                      2 P m M.mXPXAXyX=X=X:XrXZXeXU.u u u I.Y.I.9XnXn.j.! ; S.^.7Xd tXtXr 6 3.>XCX{ M C                         ",
"                      3 W S %.DXIXvXn.e n.nXrXrXY.u H.7XnXZXeX4X2X9XU.1 O O j.S.tXd <X3.r.6.N.FXbX| M V                         ",
"                      4 2 n } DXJXs w w y 1X2XY.y u 9XZXZXnX9XY.p 0 q.3.O o N.S.8XF.V.x.x.c.kXJXfXH M V                         ",
"                        n P | bXGXp <XFXtXd Q.t w 2XVXZXrX2XD.u u a G.G.3.2.W.^.Z.J.P.+X$X@XSXCXC.B m                           ",
"                        C M H dXGXE.<XcX2Xi n.n.U.qXVXqXQ.I.R.7X8X5X4XQ.G.0 K.$X#X@XA.#X$X@XFXjXo.M V                           ",
"                          C B B.MXeXi rXT.7 w U.vXeX2X<X7XeXqXqXqX4X2X7Xu 7 2.3.u 8 A./.@XmXmXV.F M                             ",
"                            N X.dXDX<Xp s t n.Y.vXhXJ.Q.nXrXqX4XY.(./.hXF.k.c.r 5 5 R.lXlXSXdXo.F                               ",
"                              ) B.fXZX1Xf p D.(.#XP.P.^.E.I.Q.S.D.(.$X$X@XJ.W.R.R.^.L.@XCXbXB._                                 ",
"                                  C.>XwXC.k.W.#X+Xq.q q q q A.@X#X+XL.P.+XJ.J.Z.L.L.L.mXmXdX                                    ",
"                                        >Xb.n.C.S.q 9 9 0 8 A./.$X$X0.A./.J./.Z.P.+XbX                                          ",
"                                                S.q 9 q F.r W.J.$XA.0 P.K.Z.@X                                                  ",
"                                                                                                                                ",
"                                                                                                                                "
};
