/* XPM */
static char *_cd6887525df49ebbdee27e1d56e508cB4rItkjLklMJyIE1[] = {
/* columns rows colors chars-per-pixel */
"64 64 199 2 ",
"   c black",
".  c #AA5D23",
"X  c #AA5D22",
"o  c #A95D23",
"O  c #A85E26",
"+  c #A95C23",
"@  c #AB5C24",
"#  c #AB5D22",
"$  c #A95C24",
"%  c #AA5C24",
"&  c #AA5D24",
"*  c #AA5B22",
"=  c #A95D24",
"-  c #AA5C22",
";  c #AA5C23",
":  c #AC5B24",
">  c #AB5D24",
",  c #CC875C",
"<  c #CC885D",
"1  c #CD875D",
"2  c #CC885C",
"3  c #CD885D",
"4  c #CD885C",
"5  c #A95C23",
"6  c #A95C24",
"7  c #A95C23",
"8  c #AA5D24",
"9  c #AA5D24",
"0  c #AA5D24",
"q  c #A85C23",
"w  c #91501E",
"e  c None",
"r  c #8B4D1D",
"t  c #A25822",
"y  c #AA5D24",
"u  c #AA5C23",
"i  c #AA5C23",
"p  c #AA5C24",
"a  c #AA5D24",
"s  c #A95D23",
"d  c #A95D24",
"f  c #AA5D23",
"g  c #AA5D23",
"h  c #AA5D23",
"j  c #A95C24",
"k  c #AA5D24",
"l  c #AA5D23",
"z  c #AA5D24",
"x  c #AA5D24",
"c  c #AA5C24",
"v  c #AA5D23",
"b  c #AA5D23",
"n  c #AA5D24",
"m  c #A95C23",
"M  c #A95D24",
"N  c #A95D24",
"B  c #AA5D23",
"V  c #AA5C23",
"C  c #AA5C24",
"Z  c #A95C24",
"A  c #A95D24",
"S  c #AA5C24",
"D  c #AA5C24",
"F  c #AA5D24",
"G  c #AA5D23",
"H  c #A95D23",
"J  c #AA5D24",
"K  c #AA5C23",
"L  c #AA5D24",
"P  c #AA5D24",
"I  c #AA5D24",
"U  c #AA5D24",
"Y  c #AA5D24",
"T  c #AA5D23",
"R  c #AA5C23",
"E  c #AA5D24",
"W  c #AA5D24",
"Q  c #AA5C23",
"!  c #A95C23",
"~  c #A95D23",
"^  c #AA5C23",
"/  c #A95D24",
"(  c #A95D24",
")  c #AA5D24",
"_  c #AA5D24",
"`  c #AA5D23",
"'  c #AA5C23",
"]  c #AA5C24",
"[  c #AA5C23",
"{  c #AA5C23",
"}  c #AA5C24",
"|  c #AA5C24",
" . c #A95C23",
".. c #A95C23",
"X. c #AA5D24",
"o. c #AA5C24",
"O. c #A95C23",
"+. c #AA5C23",
"@. c #A95D24",
"#. c #AA5D24",
"$. c #AA5D24",
"%. c #AA5C24",
"&. c #AA5C23",
"*. c #AA5C24",
"=. c #AA5C23",
"-. c #AA5D23",
";. c #AA5C23",
":. c #AA5C24",
">. c #AA5C24",
",. c #AA5D23",
"<. c #AA5D23",
"1. c #A95C24",
"2. c #AA5D24",
"3. c #A95C23",
"4. c #AA5D24",
"5. c #AA5D24",
"6. c #A95D24",
"7. c #A95D24",
"8. c #AA5D23",
"9. c #AA5D24",
"0. c #A95C24",
"q. c #AA5C23",
"w. c #AA5D23",
"e. c #A95C24",
"r. c #AA5C23",
"t. c #A95D23",
"y. c #A95D23",
"u. c #A95D23",
"i. c #A95D24",
"p. c #A95D23",
"a. c #A95D23",
"s. c #A95D24",
"d. c #AA5D24",
"f. c #AA5D23",
"g. c #AA5D23",
"h. c #A95C23",
"j. c #A95C24",
"k. c #AA5C24",
"l. c #AA5C24",
"z. c #AA5C24",
"x. c #A95D23",
"c. c #A95C23",
"v. c #AA5D23",
"b. c #A95D23",
"n. c #A95C23",
"m. c #AA5D22",
"M. c #AA5D23",
"N. c #AA5C22",
"B. c #A95C22",
"V. c #A95C23",
"C. c #CC875D",
"Z. c #CD885D",
"A. c #CC875C",
"S. c #C27B4C",
"D. c #CD885C",
"F. c #CC875C",
"G. c #CD885C",
"H. c #AA5D24",
"J. c #A85C23",
"K. c #91501E",
"L. c #894B1C",
"P. c #8B4C1D",
"I. c #A25922",
"U. c #A95D24",
"Y. c #A95C23",
"T. c #AA5E26",
"R. c #AB6029",
"E. c #C69E80",
"W. c #D3BAA8",
"Q. c #D3BBA9",
"!. c #AB6028",
"~. c #AA5D23",
"^. c #D2BAA8",
"/. c #A95C22",
"(. c #AF6935",
"). c #DDD1C9",
"_. c #E4E2E0",
"`. c #DED4CC",
"'. c #CFB29D",
"]. c #AC622B",
"[. c #AA5C23",
"{. c #DDD2CA",
"}. c #D4BDAD",
"|. c #AF6A37",
" X c #AC622C",
".X c #DDD2CB",
"XX c #D2B9A6",
"oX c #914F1E",
"OX c #BF7747",
"+X c #B67245",
"@X c #B37144",
"#X c #B47144",
"$X c #BC7646",
"%X c #CC885C",
"&X c #CD885D",
"*X c #CD885E",
"=X c #CE895E",
"-X c #CD885C",
";X c white",
/* pixels */
"                                            . X 5 6 7 8 9 0 q w e r t y u i p a s o                                             ",
"                                      O + d f g h j k H.H.H.J.K.L.P.I.H.H.l z x c v b . @                                       ",
"                                  # $ n m M N H.H.H.H.H.H.H.J.K.L.P.I.H.H.H.H.H.H.B V C n % &                                   ",
"                                $ Z A S D H.H.H.H.H.H.H.H.H.J.K.L.P.I.H.H.H.H.H.H.H.H.F G H J &                                 ",
"                            * & K L P H.H.H.H.H.H.H.H.H.H.H.J.K.L.P.I.H.H.H.H.H.H.H.H.H.H.I U Y = -                             ",
"                          o % T R E H.H.H.H.H.H.H.H.H.H.H.H.J.K.L.P.I.H.H.H.H.H.H.H.H.H.H.H.E W Q $ .                           ",
"                        o $ ! ~ H.H.H.H.H.H.H.H.H.H.H.H.H.H.J.K.L.P.I.H.H.H.H.H.H.H.H.H.H.H.H.H.^ / ; &                         ",
"                      ; = ( ) H.H.H.H.H.H.H.H.H.H.H.H.H.H.H.J.K.L.P.I.H.H.H.H.H.H.H.H.H.H.H.H.H.H._ ` & ;                       ",
"                    % o ' ] H.H.H.H.H.H.H.H.H.H.H.H.H.H.H.H.J.K.L.P.I.H.H.H.H.H.H.H.H.H.H.H.H.H.H.H.[ { $ ;                     ",
"                  : o } | H.H.H.H.H.H.H.H.H.H.H.H.H.H.H.H.H.J.K.L.P.I.H.H.H.H.H.H.H.H.H.H.H.H.H.H.H.H. ...+ >                   ",
"                  & X.o.H.H.H.H.H.H.H.H.H.H.H.H.H.H.H.H.H.H.J.K.L.P.I.H.H.H.H.H.H.H.H.H.H.H.H.H.H.H.H.U.O.+.;                   ",
"                ; = @.#.H.H.H.H.H.H.H.H.H.H.H.H.H.H.H.H.H.H.J.K.L.P.I.H.H.H.H.H.H.H.H.H.H.H.H.H.H.H.H.H.#.$.o %                 ",
"                % %.&.H.H.H.H.H.H.H.H.H.H.H.H.H.H.H.H.H.H.H.J.K.L.P.I.H.H.H.H.H.H.H.H.H.H.H.H.H.H.H.H.H.H.*.=.;                 ",
"              . -.;.H.H.H.H.H.H.H.H.H.H.H.H.H.H.H.H.H.H.H.H.J.K.L.P.I.H.H.H.H.H.H.H.H.H.H.H.H.H.H.H.H.H.H.H.:.>.%               ",
"              o ,.<.H.H.H.H.H.H.H.H.H.H.H.H.H.H.H.H.H.H.H.H.J.K.L.P.I.H.H.H.H.H.H.H.H.H.H.H.H.H.H.H.H.H.H.H.I 1.&               ",
"            & & 2.H.H.H.H.H.H.H.H.H.H.H.H.H.H.H.H.H.H.H.H.H.J.K.L.P.I.H.H.H.H.H.H.H.H.H.H.H.H.H.H.H.H.H.H.H.H.3.% %             ",
"            & 4.5.H.H.H.H.H.H.H.H.H.H.H.H.H.H.H.H.H.H.H.H.H.J.K.L.P.I.H.H.H.H.H.H.H.H.H.H.H.H.H.H.H.H.H.H.H.H.6.7.=             ",
"          ; $ 8.9.H.H.H.H.H.H.H.H.H.H.H.H.H.H.H.H.H.H.H.H.H.J.K.L.P.I.H.H.H.H.H.H.H.H.H.H.H.H.H.H.H.H.H.H.H.H.9.0.. $           ",
"          ; q.w.H.H.H.H.H.H.H.H.H.H.H.H.H.H.H.H.H.H.H.H.H.H.J.K.L.P.I.H.H.H.H.H.H.H.H.H.H.H.H.H.H.H.H.H.H.H.H.H.e.r.;           ",
"          o t.y.H.H.H.H.H.H.H.H.H.H.H.H.H.H.H.H.H.H.H.H.H.H.J.K.L.P.I.H.H.H.H.H.H.H.H.H.H.H.H.H.H.H.H.H.H.H.H.H.y.u.o           ",
"          = A i.H.H.H.H.H.H.H.H.H.H.H.H.H.H.H.H.H.H.H.H.H.H.J.K.L.P.I.H.H.H.H.H.H.H.H.H.H.H.H.H.H.H.H.H.H.H.H.H.p.a.o           ",
"          % s.d.H.H.H.H.H.H.H.H.H.H.H.H.H.H.H.H.H.H.H.H.H.H.J.K.L.P.I.H.H.H.H.H.H.H.H.H.H.H.H.H.H.H.H.H.H.H.H.H.d.f.=           ",
"        ; = g.H.H.H.H.H.H.H.H.H.H.H.H.H.H.H.H.H.H.H.H.H.H.H.J.K.L.P.I.H.H.H.H.H.H.H.H.H.H.H.H.H.H.H.H.H.H.H.H.H.H.h.. $         ",
"        $ . j.H.H.H.H.H.H.H.H.H.H.H.H.H.H.H.H.H.H.H.H.H.H.H.J.K.L.P.I.H.H.H.H.H.H.H.H.H.H.H.H.H.H.H.H.H.H.H.H.H.H.k.o ;         ",
"        % l.z.H.H.H.H.H.H.H.H.H.H.H.H.H.H.H.H.H.H.H.H.H.H.H.J.K.L.P.I.H.H.H.H.H.H.H.H.H.H.H.H.H.H.H.H.H.H.H.H.H.H.x.c.+         ",
"        . -.v.H.H.H.H.H.H.H.H.H.H.H.H.H.H.H.H.H.H.H.H.H.H.H.J.K.L.P.I.H.H.H.H.H.H.H.H.H.H.H.H.H.H.H.H.H.H.H.H.H.H.b.n.+         ",
"        . m.M.H.H.H.H.H.H.H.H.H.H.H.H.H.H.H.H.Y.Y.Y.Y.H.H.H.J.K.L.P.I.H.H.Y.Y.Y.Y.H.H.H.H.H.H.H.H.H.H.H.H.H.H.H.H.M.N.;         ",
"        . m.M.H.H.H.H.H.H.H.H.H.H.H.H.H.H.H.Y.Y.T.T.Y.Y.H.H.J.K.L.P.I.H.Y.Y.T.T.Y.Y.H.H.H.H.H.H.H.H.H.H.H.H.H.H.H.M.m..         ",
"        . m.M.H.H.H.H.H.H.H.H.H.H.H.H.H.H.Y.R.E.W.Q.E.!.Y.H.J.K.L.P.I.~.!.E.Q.^.E.R.Y.H.H.H.H.H.H.H.H.H.H.H.H.H.H.M.m..         ",
"        . m.M.H.H.H.H.H.H.H.H.H.H.H.H.H.H./.(.)._.`.'.].Y.H.J.K.L.P.I.[.].'.`._.).(./.H.H.H.H.H.H.H.H.H.H.H.H.H.H.M.m..         ",
"        . m.M.H.H.H.H.H.H.H.H.H.H.H.H.H.H./.(.{.}.|. XY.H.H.J.K.L.P.I.H.Y. X|.}.{.(./.H.H.H.H.H.H.H.H.H.H.H.H.H.H.M.m..         ",
"        . m.M.H.H.H.H.H.H.H.H.H.H.H.H.H.H./.(..XXXH.Y.H.H.H.J.K.L.P.I.H.H.Y.H.XX{.(./.H.H.H.H.H.H.H.H.H.H.H.H.H.H.M.m..         ",
"        . m.M.H.H.H.H.H.H.H.H.H.H.H.H.H.H./.(..XXXH.Y.H.H.H.J.K.L.P.I.H.H.Y.H.XX{.(./.H.H.H.H.H.H.H.H.H.H.H.H.H.H.M.m..         ",
"        . m.M.H.H.H.H.H.H.H.H.H.H.H.H.H.H./.(.{.}.|. XY.H.H.J.K.L.P.I.H.Y. X|.}.{.(./.H.H.H.H.H.H.H.H.H.H.H.H.H.H.M.m..         ",
"        . m.M.H.H.H.H.H.H.H.H.H.H.H.H.H.H./.(.)._.`.'.].Y.H.J.K.L.P.I.[.].'.`._.).(./.H.H.H.H.H.H.H.H.H.H.H.H.H.H.M.m..         ",
"        . m.M.H.H.H.H.H.H.H.H.H.H.H.H.H.H.Y.R.E.^.Q.E.!.Y.H.J.K.L.P.I.~.!.E.Q.^.E.R.Y.H.H.H.H.H.H.H.H.H.H.H.H.H.H.M.m..         ",
"        . m.M.H.H.H.H.H.H.H.H.H.H.H.H.H.H.H.Y.Y.T.T.Y.Y.H.H.J.K.L.P.I.H.Y.Y.T.T.Y.Y.H.H.H.H.H.H.H.H.H.H.H.H.H.H.H.M.m..         ",
"        . m.M.H.H.H.H.H.H.H.H.H.H.H.H.H.H.H.H.Y.Y.Y.Y.H.H.H.J.K.L.P.I.H.H.Y.Y.Y.Y.H.H.H.H.H.H.H.H.H.H.H.H.H.H.H.H.M.m..         ",
"        . m.M.H.H.H.H.H.H.H.H.H.H.H.H.H.H.H.H.H.H.H.H.H.H.H.J.K.L.P.I.H.H.H.H.H.H.H.H.H.H.H.H.H.H.H.H.H.H.H.H.H.H.M.m..         ",
"        . m.M.H.H.H.H.H.H.H.H.H.H.H.H.H.H.H.H.H.H.H.H.H.H.H.J.K.L.P.I.H.H.H.H.H.H.H.H.H.H.H.H.H.H.H.H.H.H.H.H.H.H.M.m..         ",
"        . m.M.H.H.H.H.H.H.H.H.H.H.H.H.H.H.H.H.H.H.H.H.H.H.H.J.K.L.P.I.H.H.H.H.H.H.H.H.H.H.H.H.H.H.H.H.H.H.H.H.H.H.M.m..         ",
"        . m.M.H.H.H.H.H.H.H.H.H.H.H.H.H.H.H.H.H.H.H.H.H.H.H.J.K.L.P.I.H.H.H.H.H.H.H.H.H.H.H.H.H.H.H.H.H.H.H.H.H.H.M.m..         ",
"        . m.M.H.H.H.H.H.H.H.H.H.H.H.H.H.H.H.H.H.H.H.H.H.H.H.J.K.L.P.I.H.H.H.H.H.H.H.H.H.H.H.H.H.H.H.H.H.H.H.H.H.H.M.m..         ",
"        . m.M.H.H.H.H.H.H.H.H.H.H.H.H.H.H.H.H.H.H.H.H.H.H.H.J.K.L.P.I.H.H.H.H.H.H.H.H.H.H.H.H.H.H.H.H.H.H.H.H.H.H.M.m..         ",
"        . m.M.H.H.H.H.H.H.H.H.H.H.H.H.H.H.H.H.H.H.H.H.H.H.H.J.K.L.P.I.H.H.H.H.H.H.H.H.H.H.H.H.H.H.H.H.H.H.H.H.H.H.M.m..         ",
"        . m.M.H.H.H.H.H.H.H.H.H.H.H.H.H.H.H.H.H.H.H.H.H.H.H.J.K.L.P.I.H.H.H.H.H.H.H.H.H.H.H.H.H.H.H.H.H.H.H.H.H.H.M.m..         ",
"        . m.M.H.H.H.H.H.H.H.H.H.H.H.H.H.H.H.H.H.H.H.H.H.H.H.J.K.L.P.I.H.H.H.H.H.H.H.H.H.H.H.H.H.H.H.H.H.H.H.H.H.H.M.m..         ",
"        . m.M.H.H.H.H.H.H.H.H.H.H.H.H.H.H.H.H.H.H.H.H.H.H.H.J.K.L.P.I.H.H.H.H.H.H.H.H.H.H.H.H.H.H.H.H.H.H.H.H.H.H.M.m..         ",
"        . m.M.H.H.H.H.H.H.H.H.H.H.H.H.H.H.H.H.H.H.H.H.H.H.H.J.K.L.P.I.H.H.H.H.H.H.H.H.H.H.H.H.H.H.H.H.H.H.H.H.H.H.M.m..         ",
"        . m.M.H.H.H.H.H.H.H.H.H.H.H.H.H.H.H.H.H.H.H.H.H.H.H.J.K.L.P.I.H.H.H.H.H.H.H.H.H.H.H.H.H.H.H.H.H.H.H.H.H.H.M.m..         ",
"        . m.M.H.H.H.H.H.H.H.H.H.H.H.H.H.H.H.H.H.H.H.H.H.H.H.J.K.L.P.I.H.H.H.H.H.H.H.H.H.H.H.H.H.H.H.H.H.H.H.H.H.H.M.m..         ",
"        . m.M.H.H.H.H.H.H.H.H.H.H.H.H.H.H.H.H.H.H.H.H.H.H.H.J.K.L.P.I.H.H.H.H.H.H.H.H.H.H.H.H.H.H.H.H.H.H.H.H.H.H.M.m..         ",
"        . m.M.H.H.H.H.H.H.H.H.H.H.H.H.H.H.H.H.H.H.H.H.H.H.H.J.K.L.P.I.H.H.H.H.H.H.H.H.H.H.H.H.H.H.H.H.H.H.H.H.H.H.M.m..         ",
"        . m.M.H.H.H.H.H.H.H.H.H.H.H.H.H.H.H.H.H.H.H.H.H.H.H.J.K.L.P.I.H.H.H.H.H.H.H.H.H.H.H.H.H.H.H.H.H.H.H.H.H.H.M.m..         ",
"        . m.M.H.H.H.H.H.H.H.H.H.H.H.H.H.H.H.H.H.H.H.H.H.H.H.J.K.L.P.I.H.H.H.H.H.H.H.H.H.H.H.H.H.H.H.H.H.H.H.H.H.H.M.m..         ",
"        . m.M.H.H.H.H.H.H.H.H.H.H.H.H.H.H.H.H.H.H.H.H.H.H.H.J.K.L.P.I.H.H.H.H.H.H.H.H.H.H.H.H.H.H.H.H.H.H.H.H.H.H.M.m..         ",
"        . m.M.H.H.H.H.H.H.H.H.H.H.H.H.H.H.H.H.H.H.H.H.H.H.H.J.K.L.P.I.H.H.H.H.H.H.H.H.H.H.H.H.H.H.H.H.H.H.H.H.H.H.M.m..         ",
"        . m.M.H.H.H.H.H.H.H.H.H.H.H.H.H.H.H.H.H.H.H.H.H.H.H.J.K.L.P.I.H.H.H.H.H.H.H.H.H.H.H.H.H.H.H.H.H.H.H.H.H.H.M.m..         ",
"        . m.M.H.H.H.H.H.H.H.H.H.H.H.H.H.H.H.H.H.H.H.H.H.H.H.J.K.L.P.I.H.H.H.H.H.H.H.H.H.H.H.H.H.H.H.H.H.H.H.H.H.H.M.m..         ",
"        . m.M.H.H.H.H.H.H.H.H.H.H.H.H.H.H.H.H.H.H.H.H.H.H.H.J.K.L.P.I.H.H.H.H.H.H.H.H.H.H.H.H.H.H.H.H.H.H.H.H.H.H.M.m..         ",
"        + B.V.Y.Y.Y.Y.Y.Y.Y.Y.Y.Y.Y.Y.Y.Y.Y.Y.Y.Y.Y.Y.Y.Y.H.J.K.L.P.I.H.Y.Y.Y.Y.Y.Y.Y.Y.Y.Y.Y.Y.Y.Y.Y.Y.Y.Y.Y.Y.Y.V.B.+         ",
"        + B.V.Y.Y.Y.Y.Y.Y.Y.Y.Y.Y.Y.Y.Y.Y.Y.Y.Y.Y.Y.Y.Y.Y.~.J.oXL.P.I.H.Y.Y.Y.Y.Y.Y.Y.Y.Y.Y.Y.Y.Y.Y.Y.Y.Y.Y.Y.Y.Y.V.B.+         ",
"  , < C.Z.A.S.OXOXOXOXOXOXOXOXOXOXOXOXOXOXOXOXOXOXOXOXOXOXOXOX+X@X#X$XOXOXOXOXOXOXOXOXOXOXOXOXOXOXOXOXOXOXOXOXOXOXS.A.Z.D.1 2   ",
"  , 3 F.%X&X&X*X*X*X*X*X*X*X*X*X*X*X*X*X*X*X*X*X*X*X*X*X*X*X*X=X=X=X*X*X*X*X*X*X*X*X*X*X*X*X*X*X*X*X*X*X*X*X*X*X*X&X&X-XG.< 4   "
};
