/* XPM */
static char *result[] = {
/* columns rows colors chars-per-pixel */
"64 64 8 1 ",
"  c #141B1B",
". c #345A52",
"X c #D14B34",
"o c #56864C",
"O c #A8A129",
"+ c #EF914F",
"@ c #F2EAF1",
"# c #815B3E",
/* pixels */
"################################################################",
"################################################################",
"################################################################",
"################################################################",
"################################################            ####",
"################################################            ####",
"################################################            ####",
"################################################            ####",
"################                                oooooooo    ####",
"################                                oooooooo    ####",
"################                                oooooooo    ####",
"################                                oooooooo    ####",
"############    OOOOOOOOOOOOOOOOOOOOOOOOOOOOOOOOoooooooo        ",
"############    OOOOOOOOOOOOOOOOOOOOOOOOOOOOOOOOoooooooo        ",
"############    OOOOOOOOOOOOOOOOOOOOOOOOOOOOOOOOoooooooo        ",
"############    OOOOOOOOOOOOOOOOOOOOOOOOOOOOOOOOoooooooo        ",
"########    OOOOOOOOOOOOOOOOOOOOOOOOOOOOOOOOOOOOoooo    oooo    ",
"########    OOOOOOOOOOOOOOOOOOOOOOOOOOOOOOOOOOOOoooo    oooo    ",
"########    OOOOOOOOOOOOOOOOOOOOOOOOOOOOOOOOOOOOoooo    oooo    ",
"########    OOOOOOOOOOOOOOOOOOOOOOOOOOOOOOOOOOOOoooo    oooo    ",
"####    ooooOOOOOOOOOOOOOOOOOOOOOOOOOOOOOOOOOOOOOOOOoooooooo    ",
"####    ooooOOOOOOOOOOOOOOOOOOOOOOOOOOOOOOOOOOOOOOOOoooooooo    ",
"####    ooooOOOOOOOOOOOOOOOOOOOOOOOOOOOOOOOOOOOOOOOOoooooooo    ",
"####    ooooOOOOOOOOOOOOOOOOOOOOOOOOOOOOOOOOOOOOOOOOoooooooo    ",
"####    ooooOOOOOOOOOOOOOOOOOOOOOOOOOOOOOOOOOOOOOOOO            ",
"####    ooooOOOOOOOOOOOOOOOOOOOOOOOOOOOOOOOOOOOOOOOO            ",
"####    ooooOOOOOOOOOOOOOOOOOOOOOOOOOOOOOOOOOOOOOOOO            ",
"####    ooooOOOOOOOOOOOOOOOOOOOOOOOOOOOOOOOOOOOOOOOO            ",
"####    ooooooooOOOOOOOOOOOOOOOOOOOOOOOOOOOOOOOOoooooooo    ####",
"####    ooooooooOOOOOOOOOOOOOOOOOOOOOOOOOOOOOOOOoooooooo    ####",
"####    ooooooooOOOOOOOOOOOOOOOOOOOOOOOOOOOOOOOOoooooooo    ####",
"####    ooooooooOOOOOOOOOOOOOOOOOOOOOOOOOOOOOOOOoooooooo    ####",
"####    oooo....XXXX        XXXXXXXX        XXXX....oooo    ####",
"####    oooo....XXXX        XXXXXXXX        XXXX....oooo    ####",
"####    oooo....XXXX        XXXXXXXX        XXXX....oooo    ####",
"####    oooo....XXXX        XXXXXXXX        XXXX....oooo    ####",
"####    oooo....++++@@@@    ++++++++    @@@@++++....oooo    ####",
"####    oooo....++++@@@@    ++++++++    @@@@++++....oooo    ####",
"####    oooo....++++@@@@    ++++++++    @@@@++++....oooo    ####",
"####    oooo....++++@@@@    ++++++++    @@@@++++....oooo    ####",
"####    ooooooooOOOOOOOOOOOOOOOOOOOOOOOOOOOOOOOOoooooooo    ####",
"####    ooooooooOOOOOOOOOOOOOOOOOOOOOOOOOOOOOOOOoooooooo    ####",
"####    ooooooooOOOOOOOOOOOOOOOOOOOOOOOOOOOOOOOOoooooooo    ####",
"####    ooooooooOOOOOOOOOOOOOOOOOOOOOOOOOOOOOOOOoooooooo    ####",
"########    oooooooooooooooooooooooooooooooooooooooo    ########",
"########    oooooooooooooooooooooooooooooooooooooooo    ########",
"########    oooooooooooooooooooooooooooooooooooooooo    ########",
"########    oooooooooooooooooooooooooooooooooooooooo    ########",
"########        ................................        ########",
"########        ................................        ########",
"########        ................................        ########",
"########        ................................        ########",
"####    XXXXXXXXoooo....oooooooooooooooo....ooooXXXXXXXX    ####",
"####    XXXXXXXXoooo....oooooooooooooooo....ooooXXXXXXXX    ####",
"####    XXXXXXXXoooo....oooooooooooooooo....ooooXXXXXXXX    ####",
"####    XXXXXXXXoooo....oooooooooooooooo....ooooXXXXXXXX    ####",
"####    ++++++++............        ............++++++++    ####",
"####    ++++++++............        ............++++++++    ####",
"####    ++++++++............        ............++++++++    ####",
"####    ++++++++............        ............++++++++    ####",
"########        ............        ............        ########",
"########        ............        ............        ########",
"########        ............        ............        ########",
"########        ............        ............        ########"
};
